<svg id="visual" viewBox="0 0 1280 800" width="1280" height="800" xmlns="http://www.w3.org/2000/svg" xmlns:xlink="http://www.w3.org/1999/xlink" version="1.1"><path d="M0 590L26.7 594.3C53.3 598.7 106.7 607.3 160 601.2C213.3 595 266.7 574 320 567.3C373.3 560.7 426.7 568.3 480 575.2C533.3 582 586.7 588 640 593.8C693.3 599.7 746.7 605.3 800 599.3C853.3 593.3 906.7 575.7 960 566C1013.3 556.3 1066.7 554.7 1120 552.2C1173.3 549.7 1226.7 546.3 1253.3 544.7L1280 543L1280 801L1253.3 801C1226.7 801 1173.3 801 1120 801C1066.7 801 1013.3 801 960 801C906.7 801 853.3 801 800 801C746.7 801 693.3 801 640 801C586.7 801 533.3 801 480 801C426.7 801 373.3 801 320 801C266.7 801 213.3 801 160 801C106.7 801 53.3 801 26.7 801L0 801Z" fill="#b097db"></path><path d="M0 638L26.7 634.5C53.3 631 106.7 624 160 612C213.3 600 266.7 583 320 573.7C373.3 564.3 426.7 562.7 480 565C533.3 567.3 586.7 573.7 640 575.7C693.3 577.7 746.7 575.3 800 576.8C853.3 578.3 906.7 583.7 960 592.7C1013.3 601.7 1066.7 614.3 1120 619C1173.3 623.7 1226.7 620.3 1253.3 618.7L1280 617L1280 801L1253.3 801C1226.7 801 1173.3 801 1120 801C1066.7 801 1013.3 801 960 801C906.7 801 853.3 801 800 801C746.7 801 693.3 801 640 801C586.7 801 533.3 801 480 801C426.7 801 373.3 801 320 801C266.7 801 213.3 801 160 801C106.7 801 53.3 801 26.7 801L0 801Z" fill="#a388d2"></path><path d="M0 605L26.7 613C53.3 621 106.7 637 160 640.5C213.3 644 266.7 635 320 635.2C373.3 635.3 426.7 644.7 480 640.2C533.3 635.7 586.7 617.3 640 619.2C693.3 621 746.7 643 800 649.5C853.3 656 906.7 647 960 635.7C1013.3 624.3 1066.7 610.7 1120 615C1173.3 619.3 1226.7 641.7 1253.3 652.8L1280 664L1280 801L1253.3 801C1226.7 801 1173.3 801 1120 801C1066.7 801 1013.3 801 960 801C906.7 801 853.3 801 800 801C746.7 801 693.3 801 640 801C586.7 801 533.3 801 480 801C426.7 801 373.3 801 320 801C266.7 801 213.3 801 160 801C106.7 801 53.3 801 26.7 801L0 801Z" fill="#9779c9"></path><path d="M0 656L26.7 660C53.3 664 106.7 672 160 672.8C213.3 673.7 266.7 667.3 320 662.8C373.3 658.3 426.7 655.7 480 655.3C533.3 655 586.7 657 640 659.2C693.3 661.3 746.7 663.7 800 666.8C853.3 670 906.7 674 960 676.8C1013.3 679.7 1066.7 681.3 1120 683.3C1173.3 685.3 1226.7 687.7 1253.3 688.8L1280 690L1280 801L1253.3 801C1226.7 801 1173.3 801 1120 801C1066.7 801 1013.3 801 960 801C906.7 801 853.3 801 800 801C746.7 801 693.3 801 640 801C586.7 801 533.3 801 480 801C426.7 801 373.3 801 320 801C266.7 801 213.3 801 160 801C106.7 801 53.3 801 26.7 801L0 801Z" fill="#8a6ac0"></path><path d="M0 702L26.7 698.5C53.3 695 106.7 688 160 684C213.3 680 266.7 679 320 677.7C373.3 676.3 426.7 674.7 480 676.2C533.3 677.7 586.7 682.3 640 679.5C693.3 676.7 746.7 666.3 800 664.3C853.3 662.3 906.7 668.7 960 676C1013.3 683.3 1066.7 691.7 1120 695.5C1173.3 699.3 1226.7 698.7 1253.3 698.3L1280 698L1280 801L1253.3 801C1226.7 801 1173.3 801 1120 801C1066.7 801 1013.3 801 960 801C906.7 801 853.3 801 800 801C746.7 801 693.3 801 640 801C586.7 801 533.3 801 480 801C426.7 801 373.3 801 320 801C266.7 801 213.3 801 160 801C106.7 801 53.3 801 26.7 801L0 801Z" fill="#7e5cb7"></path><path d="M0 736L26.7 730.8C53.3 725.7 106.7 715.3 160 712.3C213.3 709.3 266.7 713.7 320 710.3C373.3 707 426.7 696 480 690.8C533.3 685.7 586.7 686.3 640 691C693.3 695.7 746.7 704.3 800 708C853.3 711.7 906.7 710.3 960 714.2C1013.3 718 1066.7 727 1120 723.3C1173.3 719.7 1226.7 703.3 1253.3 695.2L1280 687L1280 801L1253.3 801C1226.7 801 1173.3 801 1120 801C1066.7 801 1013.3 801 960 801C906.7 801 853.3 801 800 801C746.7 801 693.3 801 640 801C586.7 801 533.3 801 480 801C426.7 801 373.3 801 320 801C266.7 801 213.3 801 160 801C106.7 801 53.3 801 26.7 801L0 801Z" fill="#714eae"></path><path d="M0 736L26.7 733.2C53.3 730.3 106.7 724.7 160 721.2C213.3 717.7 266.7 716.3 320 723C373.3 729.7 426.7 744.3 480 747.2C533.3 750 586.7 741 640 740.3C693.3 739.7 746.7 747.3 800 748.7C853.3 750 906.7 745 960 740.2C1013.3 735.3 1066.7 730.7 1120 727.8C1173.3 725 1226.7 724 1253.3 723.5L1280 723L1280 801L1253.3 801C1226.7 801 1173.3 801 1120 801C1066.7 801 1013.3 801 960 801C906.7 801 853.3 801 800 801C746.7 801 693.3 801 640 801C586.7 801 533.3 801 480 801C426.7 801 373.3 801 320 801C266.7 801 213.3 801 160 801C106.7 801 53.3 801 26.7 801L0 801Z" fill="#643fa5"></path><path d="M0 776L26.7 775.5C53.3 775 106.7 774 160 771.7C213.3 769.3 266.7 765.7 320 765.7C373.3 765.7 426.7 769.3 480 766.8C533.3 764.3 586.7 755.7 640 755.3C693.3 755 746.7 763 800 766.2C853.3 769.3 906.7 767.7 960 766.5C1013.3 765.3 1066.7 764.7 1120 766.5C1173.3 768.3 1226.7 772.7 1253.3 774.8L1280 777L1280 801L1253.3 801C1226.7 801 1173.3 801 1120 801C1066.7 801 1013.3 801 960 801C906.7 801 853.3 801 800 801C746.7 801 693.3 801 640 801C586.7 801 533.3 801 480 801C426.7 801 373.3 801 320 801C266.7 801 213.3 801 160 801C106.7 801 53.3 801 26.7 801L0 801Z" fill="#57319c"></path></svg>