<svg id="visual" viewBox="0 0 1280 800" width="1280" height="800" xmlns="http://www.w3.org/2000/svg" xmlns:xlink="http://www.w3.org/1999/xlink" version="1.1"><path d="M0 227L26.7 225.3C53.3 223.7 106.7 220.3 160 215.5C213.3 210.7 266.7 204.3 320 202.8C373.3 201.3 426.7 204.7 480 216.5C533.3 228.3 586.7 248.7 640 245C693.3 241.3 746.7 213.7 800 210.7C853.3 207.7 906.7 229.3 960 232.5C1013.3 235.7 1066.7 220.3 1120 216.2C1173.3 212 1226.7 219 1253.3 222.5L1280 226L1280 0L1253.3 0C1226.7 0 1173.3 0 1120 0C1066.7 0 1013.3 0 960 0C906.7 0 853.3 0 800 0C746.7 0 693.3 0 640 0C586.7 0 533.3 0 480 0C426.7 0 373.3 0 320 0C266.7 0 213.3 0 160 0C106.7 0 53.3 0 26.7 0L0 0Z" fill="#b097db"></path><path d="M0 189L26.7 190C53.3 191 106.7 193 160 194.2C213.3 195.3 266.7 195.7 320 197.3C373.3 199 426.7 202 480 203.7C533.3 205.3 586.7 205.7 640 209.5C693.3 213.3 746.7 220.7 800 225.7C853.3 230.7 906.7 233.3 960 221.8C1013.3 210.3 1066.7 184.7 1120 181C1173.3 177.3 1226.7 195.7 1253.3 204.8L1280 214L1280 0L1253.3 0C1226.7 0 1173.3 0 1120 0C1066.7 0 1013.3 0 960 0C906.7 0 853.3 0 800 0C746.7 0 693.3 0 640 0C586.7 0 533.3 0 480 0C426.7 0 373.3 0 320 0C266.7 0 213.3 0 160 0C106.7 0 53.3 0 26.7 0L0 0Z" fill="#a388d2"></path><path d="M0 196L26.7 188C53.3 180 106.7 164 160 155C213.3 146 266.7 144 320 152C373.3 160 426.7 178 480 177.2C533.3 176.3 586.7 156.7 640 148.8C693.3 141 746.7 145 800 145.5C853.3 146 906.7 143 960 148.5C1013.3 154 1066.7 168 1120 172.2C1173.3 176.3 1226.7 170.7 1253.3 167.8L1280 165L1280 0L1253.3 0C1226.7 0 1173.3 0 1120 0C1066.7 0 1013.3 0 960 0C906.7 0 853.3 0 800 0C746.7 0 693.3 0 640 0C586.7 0 533.3 0 480 0C426.7 0 373.3 0 320 0C266.7 0 213.3 0 160 0C106.7 0 53.3 0 26.7 0L0 0Z" fill="#9779c9"></path><path d="M0 138L26.7 142.8C53.3 147.7 106.7 157.3 160 163.7C213.3 170 266.7 173 320 168.2C373.3 163.3 426.7 150.7 480 142.3C533.3 134 586.7 130 640 131.2C693.3 132.3 746.7 138.7 800 136.2C853.3 133.7 906.7 122.3 960 124.2C1013.3 126 1066.7 141 1120 143C1173.3 145 1226.7 134 1253.3 128.5L1280 123L1280 0L1253.3 0C1226.7 0 1173.3 0 1120 0C1066.7 0 1013.3 0 960 0C906.7 0 853.3 0 800 0C746.7 0 693.3 0 640 0C586.7 0 533.3 0 480 0C426.7 0 373.3 0 320 0C266.7 0 213.3 0 160 0C106.7 0 53.3 0 26.7 0L0 0Z" fill="#8a6ac0"></path><path d="M0 122L26.7 116.5C53.3 111 106.7 100 160 95.2C213.3 90.3 266.7 91.7 320 96.7C373.3 101.7 426.7 110.3 480 115.5C533.3 120.7 586.7 122.3 640 123.5C693.3 124.7 746.7 125.3 800 125.7C853.3 126 906.7 126 960 123.5C1013.3 121 1066.7 116 1120 118.3C1173.3 120.7 1226.7 130.3 1253.3 135.2L1280 140L1280 0L1253.3 0C1226.7 0 1173.3 0 1120 0C1066.7 0 1013.3 0 960 0C906.7 0 853.3 0 800 0C746.7 0 693.3 0 640 0C586.7 0 533.3 0 480 0C426.7 0 373.3 0 320 0C266.7 0 213.3 0 160 0C106.7 0 53.3 0 26.7 0L0 0Z" fill="#7e5cb7"></path><path d="M0 64L26.7 64.8C53.3 65.7 106.7 67.3 160 75.3C213.3 83.3 266.7 97.7 320 105.2C373.3 112.7 426.7 113.3 480 112.5C533.3 111.7 586.7 109.3 640 103.8C693.3 98.3 746.7 89.7 800 90.2C853.3 90.7 906.7 100.3 960 98.3C1013.3 96.3 1066.7 82.7 1120 80.3C1173.3 78 1226.7 87 1253.3 91.5L1280 96L1280 0L1253.3 0C1226.7 0 1173.3 0 1120 0C1066.7 0 1013.3 0 960 0C906.7 0 853.3 0 800 0C746.7 0 693.3 0 640 0C586.7 0 533.3 0 480 0C426.7 0 373.3 0 320 0C266.7 0 213.3 0 160 0C106.7 0 53.3 0 26.7 0L0 0Z" fill="#714eae"></path><path d="M0 58L26.7 56.2C53.3 54.3 106.7 50.7 160 54.2C213.3 57.7 266.7 68.3 320 73.3C373.3 78.3 426.7 77.7 480 71C533.3 64.3 586.7 51.7 640 48.7C693.3 45.7 746.7 52.3 800 59.3C853.3 66.3 906.7 73.7 960 75C1013.3 76.3 1066.7 71.7 1120 70.2C1173.3 68.7 1226.7 70.3 1253.3 71.2L1280 72L1280 0L1253.3 0C1226.7 0 1173.3 0 1120 0C1066.7 0 1013.3 0 960 0C906.7 0 853.3 0 800 0C746.7 0 693.3 0 640 0C586.7 0 533.3 0 480 0C426.7 0 373.3 0 320 0C266.7 0 213.3 0 160 0C106.7 0 53.3 0 26.7 0L0 0Z" fill="#643fa5"></path><path d="M0 37L26.7 35.3C53.3 33.7 106.7 30.3 160 32.3C213.3 34.3 266.7 41.7 320 42C373.3 42.3 426.7 35.7 480 30.5C533.3 25.3 586.7 21.7 640 23.3C693.3 25 746.7 32 800 33.8C853.3 35.7 906.7 32.3 960 34.3C1013.3 36.3 1066.7 43.7 1120 45.8C1173.3 48 1226.7 45 1253.3 43.5L1280 42L1280 0L1253.3 0C1226.7 0 1173.3 0 1120 0C1066.7 0 1013.3 0 960 0C906.7 0 853.3 0 800 0C746.7 0 693.3 0 640 0C586.7 0 533.3 0 480 0C426.7 0 373.3 0 320 0C266.7 0 213.3 0 160 0C106.7 0 53.3 0 26.7 0L0 0Z" fill="#57319c"></path></svg>